# xmcd CD database file
#
# Track frame offsets:
#	150
#	18996
#	40872
#	62661
#	81921
#	106636
#	128765
#	151106
#	172275
#	197339
#	218243
#
# Disc length: 3188 seconds
#
# Revision: 1
# Processed by: cddbd v1.5.1PL0 Copyright (c) Steve Scherf et al.
# Submitted via: CDex 1.51
#
DISCID=870c720b
DTITLE=Grupo Galé - Esencia Latina
DYEAR=2004
DGENRE=Salsa
TTITLE0=Esencia Latina
TTITLE1=Salsa Y Condimento
TTITLE2=Mas Que Amor
TTITLE3=Culpable
TTITLE4=Urgente
TTITLE5=Las Mujeres
TTITLE6=Nada Puedo Hacer
TTITLE7=Saldo En Rojo
TTITLE8=Lo Tuyo Y Lo Mio
TTITLE9=No Imaginas
TTITLE10=Dame Una Señal
EXTD=YEAR: 2004
EXTT0=
EXTT1=
EXTT2=
EXTT3=
EXTT4=
EXTT5=
EXTT6=
EXTT7=
EXTT8=
EXTT9=
EXTT10=
PLAYORDER=
